<mxfile host="app.diagrams.net" modified="2023-11-10T22:46:40.528Z" agent="Mozilla/5.0 (Windows NT 10.0; Win64; x64) AppleWebKit/537.36 (KHTML, like Gecko) Chrome/119.0.0.0 Safari/537.36 Edg/119.0.0.0" etag="Hbs3oSg0yvg0Iby8Klwp" version="22.1.0" type="github">
  <diagram name="Página-1" id="qXNSg17CZVfO5A1WviAO">
    <mxGraphModel dx="1188" dy="693" grid="1" gridSize="10" guides="1" tooltips="1" connect="1" arrows="1" fold="1" page="1" pageScale="1" pageWidth="827" pageHeight="1169" math="0" shadow="0">
      <root>
        <mxCell id="0" />
        <mxCell id="1" parent="0" />
        <mxCell id="wucH2L1NYRpOZqb6inEG-15" value="Cliente" style="shape=umlActor;verticalLabelPosition=bottom;verticalAlign=top;html=1;outlineConnect=0;" vertex="1" parent="1">
          <mxGeometry x="120" y="140" width="30" height="60" as="geometry" />
        </mxCell>
        <mxCell id="wucH2L1NYRpOZqb6inEG-16" value="" style="endArrow=none;html=1;rounded=0;exitX=0.5;exitY=0.5;exitDx=0;exitDy=0;exitPerimeter=0;entryX=0;entryY=0.5;entryDx=0;entryDy=0;" edge="1" parent="1" source="wucH2L1NYRpOZqb6inEG-15" target="wucH2L1NYRpOZqb6inEG-17">
          <mxGeometry width="50" height="50" relative="1" as="geometry">
            <mxPoint x="360" y="240" as="sourcePoint" />
            <mxPoint x="400" y="170" as="targetPoint" />
          </mxGeometry>
        </mxCell>
        <mxCell id="wucH2L1NYRpOZqb6inEG-17" value="Realiza o Cadastro no Sistema da Pizzaria" style="ellipse;whiteSpace=wrap;html=1;" vertex="1" parent="1">
          <mxGeometry x="344" y="135" width="140" height="70" as="geometry" />
        </mxCell>
        <mxCell id="wucH2L1NYRpOZqb6inEG-18" value="" style="endArrow=none;html=1;rounded=0;entryX=0.5;entryY=0.5;entryDx=0;entryDy=0;entryPerimeter=0;exitX=0;exitY=0.5;exitDx=0;exitDy=0;" edge="1" parent="1" source="wucH2L1NYRpOZqb6inEG-19" target="wucH2L1NYRpOZqb6inEG-15">
          <mxGeometry width="50" height="50" relative="1" as="geometry">
            <mxPoint x="340" y="290" as="sourcePoint" />
            <mxPoint x="180" y="220" as="targetPoint" />
          </mxGeometry>
        </mxCell>
        <mxCell id="wucH2L1NYRpOZqb6inEG-19" value="Realizar Login" style="ellipse;whiteSpace=wrap;html=1;" vertex="1" parent="1">
          <mxGeometry x="230" y="360" width="140" height="70" as="geometry" />
        </mxCell>
        <mxCell id="wucH2L1NYRpOZqb6inEG-20" value="&amp;lt;&amp;lt;INCLUDE&amp;gt;&amp;gt;" style="endArrow=open;endSize=12;dashed=1;html=1;rounded=0;entryX=1;entryY=0.5;entryDx=0;entryDy=0;exitX=0;exitY=0.5;exitDx=0;exitDy=0;" edge="1" parent="1" source="wucH2L1NYRpOZqb6inEG-22" target="wucH2L1NYRpOZqb6inEG-17">
          <mxGeometry width="160" relative="1" as="geometry">
            <mxPoint x="290" y="320" as="sourcePoint" />
            <mxPoint x="450" y="320" as="targetPoint" />
          </mxGeometry>
        </mxCell>
        <mxCell id="wucH2L1NYRpOZqb6inEG-23" style="edgeStyle=orthogonalEdgeStyle;rounded=0;orthogonalLoop=1;jettySize=auto;html=1;exitX=0.5;exitY=0.5;exitDx=0;exitDy=0;exitPerimeter=0;entryX=1;entryY=0.5;entryDx=0;entryDy=0;endArrow=none;endFill=0;" edge="1" parent="1" source="wucH2L1NYRpOZqb6inEG-21" target="wucH2L1NYRpOZqb6inEG-22">
          <mxGeometry relative="1" as="geometry" />
        </mxCell>
        <mxCell id="wucH2L1NYRpOZqb6inEG-21" value="Gerente" style="shape=umlActor;verticalLabelPosition=bottom;verticalAlign=top;html=1;outlineConnect=0;" vertex="1" parent="1">
          <mxGeometry x="780" y="200" width="30" height="60" as="geometry" />
        </mxCell>
        <mxCell id="wucH2L1NYRpOZqb6inEG-22" value="Verifica Credenciais do Usuário" style="ellipse;whiteSpace=wrap;html=1;" vertex="1" parent="1">
          <mxGeometry x="590" y="205" width="140" height="70" as="geometry" />
        </mxCell>
        <mxCell id="wucH2L1NYRpOZqb6inEG-24" value="&amp;lt;&amp;lt;INCLUDE&amp;gt;&amp;gt;" style="endArrow=open;endSize=12;dashed=1;html=1;rounded=0;exitX=1;exitY=0.5;exitDx=0;exitDy=0;entryX=0.014;entryY=0.614;entryDx=0;entryDy=0;entryPerimeter=0;" edge="1" parent="1" source="wucH2L1NYRpOZqb6inEG-19" target="wucH2L1NYRpOZqb6inEG-25">
          <mxGeometry width="160" relative="1" as="geometry">
            <mxPoint x="550" y="435" as="sourcePoint" />
            <mxPoint x="500" y="340" as="targetPoint" />
          </mxGeometry>
        </mxCell>
        <mxCell id="wucH2L1NYRpOZqb6inEG-25" value="Aprovar cadastro do Cliente" style="ellipse;whiteSpace=wrap;html=1;" vertex="1" parent="1">
          <mxGeometry x="590" y="350" width="140" height="70" as="geometry" />
        </mxCell>
        <mxCell id="wucH2L1NYRpOZqb6inEG-26" value="&amp;lt;&amp;lt;INCLUDE&amp;gt;&amp;gt;" style="endArrow=open;endSize=12;dashed=1;html=1;rounded=0;exitX=0.5;exitY=0;exitDx=0;exitDy=0;entryX=0.5;entryY=1;entryDx=0;entryDy=0;" edge="1" parent="1" source="wucH2L1NYRpOZqb6inEG-25" target="wucH2L1NYRpOZqb6inEG-22">
          <mxGeometry width="160" relative="1" as="geometry">
            <mxPoint x="414" y="492" as="sourcePoint" />
            <mxPoint x="636" y="440" as="targetPoint" />
          </mxGeometry>
        </mxCell>
      </root>
    </mxGraphModel>
  </diagram>
</mxfile>
